<svg width="22" height="22" viewBox="0 0 22 22" fill="none" xmlns="http://www.w3.org/2000/svg">
<g clip-path="url(#clip0_670_35)">
<path d="M3.73828 0.0386715C3.52344 0.107422 3.35586 0.214844 3.20547 0.395311C2.92617 0.717577 2.92188 0.760546 2.92188 3.11523V5.225L1.73594 6.04141C0.511328 6.8793 0.270703 7.08555 0.116016 7.425L0.0214844 7.62695V14.2656V20.9043L0.116016 21.1062C0.244922 21.3898 0.567187 21.7207 0.855078 21.8582L1.0957 21.9785H11H20.9043L21.1449 21.8582C21.4328 21.7207 21.7551 21.3898 21.884 21.1062L21.9785 20.9043V14.2656V7.62695L21.884 7.425C21.725 7.08125 21.4715 6.86641 20.2598 6.03281L19.0781 5.225V3.11523C19.0781 0.760546 19.0738 0.717577 18.7945 0.395311C18.7086 0.292187 18.5582 0.167578 18.4594 0.116014L18.2832 0.0214844L11.0645 0.0128899C7.09414 0.00859261 3.79844 0.0214844 3.73828 0.0386715ZM18.2059 0.833593L18.3262 0.936718L18.3391 5.16484L18.3477 9.39297L18.2531 9.4832C18.1973 9.53477 16.8438 10.5918 15.241 11.8336L12.3277 14.0938L12.0785 13.9262C11.3996 13.4621 10.5789 13.4621 9.93008 13.9219C9.7582 14.0422 9.67656 14.0766 9.6293 14.0508C9.59062 14.0293 8.23711 12.9809 6.61719 11.7219L3.67383 9.43164V5.18633V0.936718L3.79414 0.833593L3.91445 0.730469H11H18.0855L18.2059 0.833593ZM2.92188 7.49805V8.84727L1.99805 8.13398C1.49102 7.74297 1.07422 7.40781 1.07422 7.39492C1.07852 7.36484 2.84023 6.15312 2.8918 6.14883C2.90898 6.14453 2.92188 6.75469 2.92188 7.49805ZM20.0406 6.76758C20.5262 7.09844 20.9215 7.38203 20.9258 7.39492C20.9258 7.40781 20.6508 7.63125 20.3156 7.89336C19.9762 8.15547 19.5594 8.47773 19.3918 8.61094L19.0781 8.85586V7.49805C19.0781 6.69453 19.0953 6.14453 19.1168 6.15312C19.1383 6.15742 19.5551 6.43672 20.0406 6.76758ZM5.49141 11.7734C8.83438 14.3687 9.05781 14.5492 8.98906 14.618C8.95039 14.6566 7.08984 16.0746 4.85547 17.7676C1.44375 20.3543 0.794922 20.8312 0.769141 20.7668C0.751953 20.7238 0.734766 17.8535 0.734766 14.3859L0.730469 8.07812L1.32344 8.54219C1.6543 8.7957 3.52773 10.248 5.49141 11.7734ZM21.2352 20.7496C21.2051 20.8355 20.8313 20.5648 17.1445 17.7633C14.9102 16.0703 13.0496 14.6523 13.0109 14.6137C12.9422 14.5492 13.1227 14.4031 15.6105 12.4738C17.0801 11.3309 18.9492 9.88281 19.7656 9.24687L21.248 8.09961L21.2609 14.3773C21.2652 17.832 21.2566 20.7023 21.2352 20.7496ZM11.4125 14.3902C11.5672 14.459 20.191 20.9645 20.4316 21.1879C20.5133 21.2695 20.2855 21.2695 11 21.2695C2.79727 21.2695 1.49531 21.2609 1.54688 21.2094C1.74883 21.0117 10.45 14.4547 10.5918 14.3902C10.8152 14.2871 11.1848 14.2871 11.4125 14.3902Z" fill="white"/>
<path d="M10.4112 2.23866C8.52054 2.48359 6.95648 3.81991 6.42797 5.6332C6.02836 7.02538 6.26468 8.49062 7.09398 9.69374C7.3432 10.0547 7.95336 10.6605 8.31429 10.9012C9.73226 11.8551 11.5928 11.9926 13.0752 11.2535C13.4448 11.0687 13.535 10.9742 13.535 10.7894C13.5307 10.6047 13.4619 10.5059 13.303 10.4414C13.1998 10.4027 13.1268 10.4242 12.7616 10.5875C12.0869 10.8969 11.7346 10.9785 10.9998 10.9785C10.278 10.9785 9.89125 10.8926 9.28968 10.6133C8.80414 10.3855 8.46039 10.132 8.05218 9.70234C7.26156 8.86015 6.86625 7.6914 6.99515 6.54843C7.09828 5.6246 7.4764 4.82538 8.12093 4.16796C8.53343 3.74687 8.73109 3.60077 9.24242 3.34726C9.79242 3.07226 10.308 2.95624 10.9784 2.95195C12.1385 2.94765 13.0709 3.33866 13.8787 4.16366C14.6694 4.97577 15.0389 5.93827 15.0389 7.18437C15.0389 7.6871 14.9916 7.88476 14.8112 8.1039C14.3514 8.6582 13.4147 8.44765 13.2385 7.75155C13.2084 7.63984 13.1912 7.06405 13.1912 6.27343V4.98007L13.0838 4.87695C12.9377 4.72655 12.7487 4.73515 12.5854 4.89413C12.5037 4.98007 12.4608 5.06601 12.4608 5.15195C12.4608 5.31093 12.4522 5.31523 12.276 5.18202C11.4467 4.55898 10.2049 4.6621 9.45297 5.41405C8.77406 6.09296 8.61507 7.09413 9.04906 7.98788C9.19086 8.28007 9.64632 8.74413 9.9514 8.90312C10.7549 9.3328 11.7862 9.2039 12.4694 8.59374L12.6928 8.39609L12.9377 8.6453C13.0881 8.7957 13.2815 8.94179 13.4362 9.01484C13.6553 9.11796 13.7369 9.13085 14.1151 9.13085C14.5147 9.13085 14.5662 9.12226 14.8327 8.98905C15.1893 8.81288 15.5116 8.47343 15.6448 8.12968C15.7221 7.93632 15.7436 7.77304 15.7608 7.35624C15.7994 6.1789 15.5502 5.22499 14.9702 4.33984C14.7123 3.94023 14.0334 3.25273 13.6639 3.0121C12.6713 2.36757 11.5155 2.09257 10.4112 2.23866ZM11.61 5.63749C11.9151 5.77929 12.1815 6.0414 12.3276 6.35507C12.4221 6.55702 12.4393 6.65585 12.4393 6.98241C12.4393 7.34335 12.4307 7.39062 12.2932 7.63984C12.1299 7.94062 11.9108 8.15116 11.6057 8.30155C11.3178 8.44335 10.6819 8.44335 10.394 8.30155C10.0889 8.15116 9.86976 7.94062 9.71078 7.64413C9.28539 6.84921 9.69789 5.84374 10.5659 5.56445C10.858 5.46991 11.3135 5.50429 11.61 5.63749Z" fill="white"/>
</g>
<defs>
<clipPath id="clip0_670_35">
<rect width="22" height="22" fill="white"/>
</clipPath>
</defs>
</svg>
