<svg width="41" height="41" viewBox="0 0 41 41" fill="none" xmlns="http://www.w3.org/2000/svg">
<rect x="2" y="6" width="37" height="30" fill="#D9D9D9"/>
<g clip-path="url(#clip0_689_15)">
<path d="M4.58055 0.0880916C2.34637 0.464459 0.4245 2.42637 0.0801637 4.69258C0.024109 5.06895 8.55966e-05 10.1939 0.0161012 20.8604L0.0401247 36.4756L0.264343 37.1162C0.896961 38.902 2.09813 40.1031 3.88387 40.7357L4.5245 40.96H20.5001H36.4757L37.1163 40.7357C38.9661 40.0791 40.2393 38.7498 40.8159 36.876C40.952 36.4195 40.96 35.6908 40.96 20.46V4.52442L40.7358 3.88379C40.1032 2.09805 38.902 0.896881 37.1163 0.264263L36.4757 0.0400448L20.7403 0.032037C11.8597 0.0240292 4.82079 0.0480526 4.58055 0.0880916ZM22.8624 8.44825C26.594 9.14493 29.8612 11.4672 31.711 14.7344C34.2255 19.1867 33.713 24.8322 30.4378 28.724C29.0604 30.3656 27.3548 31.6148 25.4169 32.4076C24.4559 32.8 24.0956 32.832 23.8313 32.5678L23.6231 32.3596V30.1654C23.6231 27.723 23.5831 27.4588 23.1106 26.7621L22.8384 26.3617L23.2548 26.3057C25.585 25.9934 27.1626 25.0404 27.9393 23.4549C28.3397 22.6381 28.4839 22.0855 28.588 21.0045C28.6761 20.0436 28.588 19.1147 28.3317 18.434C28.1716 17.9856 27.563 16.9606 27.4028 16.8645C27.3468 16.8324 27.3628 16.6563 27.4429 16.352C27.6751 15.4711 27.4348 13.5092 27.0825 13.4371C26.546 13.325 25.2888 13.7494 24.2718 14.374L23.7032 14.7264L22.9985 14.5662C21.6292 14.2459 19.1067 14.2779 17.7694 14.6223L17.313 14.7344L16.6964 14.358C15.6313 13.7174 14.2059 13.2689 13.8456 13.4611C13.7735 13.4932 13.6534 13.7494 13.5813 14.0137C13.3731 14.7584 13.3411 15.4871 13.4852 16.1758C13.5974 16.7043 13.5974 16.7844 13.4932 16.9365C12.5323 18.2258 12.2761 19.1066 12.3561 20.7402C12.4522 22.502 12.9167 23.6711 13.9257 24.6641C14.3741 25.1125 14.6944 25.3527 15.1509 25.5689C15.8075 25.8893 16.9366 26.2176 17.6573 26.3057C17.8975 26.3377 18.0977 26.3777 18.0977 26.3938C18.0977 26.4098 17.9776 26.5779 17.8335 26.7701C17.6813 26.9623 17.5212 27.2986 17.4651 27.5148C17.4091 27.7311 17.345 27.9473 17.337 28.0033C17.289 28.1635 16.4962 28.3477 15.8475 28.3477C15.303 28.3477 15.1669 28.3156 14.7184 28.0834C14.294 27.8672 14.1259 27.715 13.6534 27.0824C13.0208 26.2496 12.8126 26.0734 12.244 25.8572C11.7876 25.6811 11.3792 25.665 11.179 25.8092C10.9788 25.9533 11.0749 26.1215 11.6194 26.5139C12.188 26.9223 12.5643 27.4027 12.9007 28.1635C13.5173 29.5168 14.4622 30.1174 15.9757 30.1174C16.3761 30.1174 16.8405 30.0934 17.0007 30.0693L17.297 30.0133V31.1984C17.297 32.3035 17.289 32.3916 17.1208 32.5678C16.8005 32.9041 16.1839 32.76 14.6464 31.9912C9.8577 29.5889 7.11903 24.4719 7.8077 19.2027C8.51239 13.7895 12.7966 9.36114 18.1778 8.45625C18.5942 8.38418 19.0266 8.31211 19.1388 8.2961C19.6032 8.21602 22.1737 8.32012 22.8624 8.44825Z" fill="black"/>
</g>
<defs>
<clipPath id="clip0_689_15">
<rect width="41" height="41" fill="white"/>
</clipPath>
</defs>
</svg>
