<svg width="67" height="10" viewBox="0 0 67 10" fill="none" xmlns="http://www.w3.org/2000/svg">
<path d="M0.0568182 9V0.272727H1.11364V4.15909H5.76705V0.272727H6.82386V9H5.76705V5.09659H1.11364V9H0.0568182ZM11.5476 9.13636C10.9169 9.13636 10.3729 8.99716 9.91548 8.71875C9.46094 8.4375 9.11009 8.04545 8.86293 7.54261C8.61861 7.03693 8.49645 6.44886 8.49645 5.77841C8.49645 5.10795 8.61861 4.51705 8.86293 4.00568C9.11009 3.49148 9.45384 3.09091 9.89418 2.80398C10.3374 2.5142 10.8544 2.36932 11.4453 2.36932C11.7862 2.36932 12.1229 2.42614 12.4553 2.53977C12.7876 2.65341 13.0902 2.83807 13.3629 3.09375C13.6357 3.34659 13.853 3.68182 14.0149 4.09943C14.1768 4.51705 14.2578 5.03125 14.2578 5.64205V6.06818H9.21236V5.19886H13.2351C13.2351 4.82955 13.1612 4.5 13.0135 4.21023C12.8686 3.92045 12.6612 3.69176 12.3913 3.52415C12.1243 3.35653 11.8089 3.27273 11.4453 3.27273C11.0447 3.27273 10.6982 3.37216 10.4055 3.57102C10.1158 3.76705 9.89276 4.02273 9.73651 4.33807C9.58026 4.65341 9.50213 4.99148 9.50213 5.35227V5.93182C9.50213 6.42614 9.58736 6.84517 9.75781 7.18892C9.93111 7.52983 10.1712 7.78977 10.478 7.96875C10.7848 8.14489 11.1413 8.23295 11.5476 8.23295C11.8118 8.23295 12.0504 8.19602 12.2635 8.12216C12.4794 8.04545 12.6655 7.93182 12.8217 7.78125C12.978 7.62784 13.0987 7.4375 13.1839 7.21023L14.1555 7.48295C14.0533 7.8125 13.8814 8.10227 13.6399 8.35227C13.3984 8.59943 13.1001 8.79261 12.745 8.93182C12.3899 9.06818 11.9908 9.13636 11.5476 9.13636ZM16.7933 0.272727V9H15.7876V0.272727H16.7933ZM19.641 0.272727V9H18.6353V0.272727H19.641ZM24.142 9.13636C23.5511 9.13636 23.0327 8.99574 22.5866 8.71449C22.1435 8.43324 21.7969 8.03977 21.5469 7.53409C21.2997 7.02841 21.1761 6.4375 21.1761 5.76136C21.1761 5.07955 21.2997 4.48437 21.5469 3.97585C21.7969 3.46733 22.1435 3.07244 22.5866 2.79119C23.0327 2.50994 23.5511 2.36932 24.142 2.36932C24.733 2.36932 25.25 2.50994 25.6932 2.79119C26.1392 3.07244 26.4858 3.46733 26.733 3.97585C26.983 4.48437 27.108 5.07955 27.108 5.76136C27.108 6.4375 26.983 7.02841 26.733 7.53409C26.4858 8.03977 26.1392 8.43324 25.6932 8.71449C25.25 8.99574 24.733 9.13636 24.142 9.13636ZM24.142 8.23295C24.5909 8.23295 24.9602 8.1179 25.25 7.88778C25.5398 7.65767 25.7543 7.35511 25.8935 6.98011C26.0327 6.60511 26.1023 6.19886 26.1023 5.76136C26.1023 5.32386 26.0327 4.91619 25.8935 4.53835C25.7543 4.16051 25.5398 3.85511 25.25 3.62216C24.9602 3.3892 24.5909 3.27273 24.142 3.27273C23.6932 3.27273 23.3239 3.3892 23.0341 3.62216C22.7443 3.85511 22.5298 4.16051 22.3906 4.53835C22.2514 4.91619 22.1818 5.32386 22.1818 5.76136C22.1818 6.19886 22.2514 6.60511 22.3906 6.98011C22.5298 7.35511 22.7443 7.65767 23.0341 7.88778C23.3239 8.1179 23.6932 8.23295 24.142 8.23295ZM33.7397 9L31.3533 0.272727H32.4272L34.2511 7.38068H34.3363L36.1942 0.272727H37.3874L39.2454 7.38068H39.3306L41.1545 0.272727H42.2283L39.842 9H38.7511L36.8249 2.04545H36.7567L34.8306 9H33.7397ZM45.4585 9.13636C44.8675 9.13636 44.3491 8.99574 43.9031 8.71449C43.4599 8.43324 43.1133 8.03977 42.8633 7.53409C42.6161 7.02841 42.4925 6.4375 42.4925 5.76136C42.4925 5.07955 42.6161 4.48437 42.8633 3.97585C43.1133 3.46733 43.4599 3.07244 43.9031 2.79119C44.3491 2.50994 44.8675 2.36932 45.4585 2.36932C46.0494 2.36932 46.5664 2.50994 47.0096 2.79119C47.4556 3.07244 47.8022 3.46733 48.0494 3.97585C48.2994 4.48437 48.4244 5.07955 48.4244 5.76136C48.4244 6.4375 48.2994 7.02841 48.0494 7.53409C47.8022 8.03977 47.4556 8.43324 47.0096 8.71449C46.5664 8.99574 46.0494 9.13636 45.4585 9.13636ZM45.4585 8.23295C45.9073 8.23295 46.2766 8.1179 46.5664 7.88778C46.8562 7.65767 47.0707 7.35511 47.2099 6.98011C47.3491 6.60511 47.4187 6.19886 47.4187 5.76136C47.4187 5.32386 47.3491 4.91619 47.2099 4.53835C47.0707 4.16051 46.8562 3.85511 46.5664 3.62216C46.2766 3.3892 45.9073 3.27273 45.4585 3.27273C45.0096 3.27273 44.6403 3.3892 44.3505 3.62216C44.0607 3.85511 43.8462 4.16051 43.707 4.53835C43.5678 4.91619 43.4982 5.32386 43.4982 5.76136C43.4982 6.19886 43.5678 6.60511 43.707 6.98011C43.8462 7.35511 44.0607 7.65767 44.3505 7.88778C44.6403 8.1179 45.0096 8.23295 45.4585 8.23295ZM49.9595 9V2.45455H50.9311V3.44318H50.9993C51.1186 3.11932 51.3345 2.85653 51.647 2.65483C51.9595 2.45312 52.3118 2.35227 52.7038 2.35227C52.7777 2.35227 52.87 2.35369 52.9808 2.35653C53.0916 2.35937 53.1754 2.36364 53.2322 2.36932V3.39205C53.1982 3.38352 53.12 3.37074 52.9979 3.35369C52.8786 3.33381 52.7521 3.32386 52.6186 3.32386C52.3004 3.32386 52.0163 3.39062 51.7663 3.52415C51.5192 3.65483 51.3232 3.83665 51.1783 4.0696C51.0362 4.29972 50.9652 4.5625 50.9652 4.85795V9H49.9595ZM55.43 0.272727V9H54.4244V0.272727H55.43ZM59.7436 9.13636C59.1982 9.13636 58.7166 8.99858 58.299 8.72301C57.8814 8.4446 57.5547 8.05256 57.3189 7.54688C57.0831 7.03835 56.9652 6.4375 56.9652 5.74432C56.9652 5.05682 57.0831 4.46023 57.3189 3.95455C57.5547 3.44886 57.8828 3.05824 58.3033 2.78267C58.7237 2.5071 59.2095 2.36932 59.7607 2.36932C60.1868 2.36932 60.5234 2.44034 60.7706 2.58239C61.0206 2.72159 61.2109 2.88068 61.3416 3.05966C61.4751 3.2358 61.5788 3.38068 61.6527 3.49432H61.7379V0.272727H62.7436V9H61.772V7.99432H61.6527C61.5788 8.11364 61.4737 8.2642 61.3374 8.44602C61.201 8.625 61.0064 8.78551 60.7536 8.92756C60.5007 9.06676 60.1641 9.13636 59.7436 9.13636ZM59.88 8.23295C60.2834 8.23295 60.6243 8.12784 60.9027 7.91761C61.1811 7.70455 61.3928 7.41051 61.5376 7.03551C61.6825 6.65767 61.755 6.22159 61.755 5.72727C61.755 5.23864 61.6839 4.81108 61.5419 4.4446C61.3999 4.07528 61.1896 3.78835 60.9112 3.58381C60.6328 3.37642 60.2891 3.27273 59.88 3.27273C59.4538 3.27273 59.0987 3.3821 58.8146 3.60085C58.5334 3.81676 58.3217 4.1108 58.1797 4.48295C58.0405 4.85227 57.9709 5.26705 57.9709 5.72727C57.9709 6.19318 58.0419 6.61648 58.1839 6.99716C58.3288 7.375 58.5419 7.67614 58.8232 7.90057C59.1072 8.12216 59.4595 8.23295 59.88 8.23295ZM66.0547 0.272727L65.9695 6.54545H64.9808L64.8956 0.272727H66.0547ZM65.4751 9.06818C65.2649 9.06818 65.0845 8.9929 64.9339 8.84233C64.7834 8.69176 64.7081 8.51136 64.7081 8.30114C64.7081 8.09091 64.7834 7.91051 64.9339 7.75994C65.0845 7.60937 65.2649 7.53409 65.4751 7.53409C65.6854 7.53409 65.8658 7.60937 66.0163 7.75994C66.1669 7.91051 66.2422 8.09091 66.2422 8.30114C66.2422 8.44034 66.2067 8.56818 66.1357 8.68466C66.0675 8.80114 65.9751 8.89489 65.8587 8.96591C65.745 9.03409 65.6172 9.06818 65.4751 9.06818Z" fill="url(#paint0_linear_686_7)"/>
<defs>
<linearGradient id="paint0_linear_686_7" x1="-1" y1="4.5" x2="68" y2="4.5" gradientUnits="userSpaceOnUse">
<stop offset="0.18" stop-color="#275EED"/>
<stop offset="0.87" stop-color="#CB00D0"/>
</linearGradient>
</defs>
</svg>
