<svg width="25" height="25" viewBox="0 0 25 25" fill="none" xmlns="http://www.w3.org/2000/svg">
<path d="M4.90723 1.3672C4.02832 1.49903 3.27637 1.87013 2.62695 2.48536C2.03125 3.04688 1.65039 3.71095 1.43555 4.54102C1.34766 4.89259 1.34277 5.18067 1.34277 12.5244C1.34277 19.6924 1.34766 20.1611 1.43066 20.459C1.79688 21.7871 2.58301 22.7393 3.76953 23.2861C4.63379 23.6865 3.95996 23.6572 12.5 23.6572C21.04 23.6572 20.3662 23.6865 21.2305 23.2861C22.373 22.7588 23.1299 21.8799 23.5205 20.6201L23.6572 20.1904V12.5488C23.6572 3.95509 23.6865 4.6338 23.2861 3.76954C22.7441 2.59278 21.8213 1.82618 20.4834 1.43067C20.21 1.35255 19.6924 1.34767 12.6709 1.3379C8.53516 1.33302 5.04395 1.34767 4.90723 1.3672ZM20.5811 1.94825C21.8262 2.36817 22.6758 3.22266 23.0566 4.44337L23.1689 4.80958V12.5V20.1904L23.0566 20.5567C22.6709 21.792 21.792 22.666 20.5566 23.0567L20.1904 23.169H12.5H4.80957L4.44336 23.0567C3.22266 22.6758 2.36816 21.8262 1.94824 20.5811L1.83105 20.2393L1.81641 12.6611C1.80176 4.44337 1.79199 4.78028 2.06543 4.10157C2.26562 3.61817 2.49512 3.27638 2.88574 2.88575C3.28125 2.49024 3.62305 2.26075 4.10645 2.06544C4.75586 1.80177 4.42383 1.81153 12.6221 1.8213L20.2393 1.83106L20.5811 1.94825Z" fill="white" stroke="white" stroke-width="0.5"/>
<path d="M11.8406 3.32521C10.078 3.54494 8.50081 4.6924 7.74397 6.30373C7.39241 7.04592 7.18245 8.12014 7.25081 8.78908C7.35823 9.77541 7.94905 11.1817 8.98909 12.9199C9.20393 13.2715 9.37483 13.5742 9.37483 13.5889C9.37483 13.6084 8.86213 13.6231 8.23713 13.6231C7.11897 13.6231 7.09456 13.6231 6.85041 13.7451C6.70393 13.8184 6.55256 13.9453 6.47932 14.0528C6.35237 14.2383 4.90706 17.8906 4.85334 18.1543C4.75569 18.6328 5.16584 19.2237 5.66877 19.336C5.86409 19.375 7.67561 19.3848 12.6463 19.375L19.3602 19.3604L19.5946 19.2237C19.9217 19.0283 20.0828 18.7647 20.1072 18.3838C20.1268 18.0908 20.1072 18.0274 19.3602 16.1231C18.8524 14.8291 18.5399 14.1065 18.4471 13.9893C18.1737 13.6621 18.1248 13.6524 16.7869 13.6231L15.5809 13.5987L16.0203 12.8662C16.5428 12.002 17.1629 10.7569 17.4022 10.1074C17.6658 9.3799 17.744 8.92092 17.7098 8.22756C17.6463 6.8799 17.0994 5.71291 16.0887 4.74123C15.2293 3.92092 14.2332 3.45705 13.0369 3.32033C12.5584 3.26662 12.3192 3.26662 11.8406 3.32521ZM13.6131 3.90139C14.6483 4.16018 15.5418 4.72658 16.1912 5.54201C16.9725 6.51857 17.3924 7.876 17.2362 8.91603C17.0067 10.4297 15.5223 13.0664 13.0711 16.3281C12.5975 16.9531 12.4754 17.0899 12.4315 17.0362C9.68733 13.4619 8.06624 10.6983 7.7635 9.06252C7.68049 8.62795 7.72444 7.86135 7.86116 7.34865C8.34456 5.53713 9.8094 4.18947 11.6844 3.82814C12.1629 3.74025 13.0858 3.77443 13.6131 3.90139ZM10.3465 14.9756C10.6981 15.4834 11.2889 16.2891 11.66 16.7725C12.3924 17.7295 12.4803 17.793 12.6951 17.5684C12.8856 17.3682 14.3651 15.376 14.8192 14.7119L15.2586 14.0625H16.5281C17.949 14.0625 18.0174 14.0772 18.1737 14.4092C18.3641 14.8096 19.6776 18.2227 19.6776 18.3057C19.6776 18.4717 19.5262 18.7305 19.3846 18.8184C19.2576 18.8916 18.6815 18.8965 12.4998 18.8965C5.0926 18.8965 5.55647 18.916 5.39534 18.6035C5.35627 18.5254 5.32209 18.3936 5.32209 18.3154C5.32209 18.1201 6.76741 14.4141 6.90413 14.2627C6.96272 14.1992 7.05061 14.1309 7.10432 14.1113C7.15803 14.0869 7.7635 14.0674 8.45198 14.0674L9.70686 14.0625L10.3465 14.9756Z" fill="white" stroke="white" stroke-width="0.3"/>
<path d="M11.8164 4.49708C10.498 4.73146 9.31641 5.64454 8.76953 6.84572C8.48145 7.48048 8.42285 7.76368 8.42285 8.52052C8.42285 9.24318 8.47656 9.53615 8.71094 10.1172C8.8916 10.5664 9.12598 10.918 9.51172 11.333C10.5273 12.417 12.0264 12.8662 13.4668 12.5195C14.8877 12.1729 16.0742 11.001 16.46 9.54103C16.6064 9.00392 16.6064 8.09572 16.46 7.54396C16.0791 6.07423 14.9512 4.95607 13.4521 4.56544C13.0908 4.46779 12.1777 4.43361 11.8164 4.49708ZM13.3594 5.02931C14.0234 5.19532 14.5117 5.47365 15.0146 5.98146C15.5176 6.48439 15.7227 6.80177 15.9277 7.40724C16.1865 8.15919 16.1621 9.11134 15.8643 9.87794C15.6055 10.542 14.9609 11.2988 14.3408 11.6651C13.5742 12.1192 12.5146 12.2803 11.6699 12.0654C10.332 11.7334 9.31641 10.7373 8.97949 9.43361C8.85254 8.93556 8.85254 8.15431 8.97949 7.65626C9.29199 6.43556 10.2197 5.46388 11.4258 5.08302C11.8408 4.95607 11.8994 4.9463 12.4805 4.93654C12.8271 4.93165 13.0859 4.96095 13.3594 5.02931Z" fill="white" stroke="white" stroke-width="0.3"/>
</svg>
