<svg width="22" height="22" viewBox="0 0 22 22" fill="none" xmlns="http://www.w3.org/2000/svg">
<g clip-path="url(#clip0_667_25)">
<path d="M3.75954 0.10747C3.20094 0.240673 2.52633 0.562939 2.03649 0.928173C1.0654 1.64145 0.425161 2.62114 0.120083 3.84575C-0.00452635 4.34849 -0.0131201 5.4356 0.102896 6.05435C0.463833 8.00513 1.80875 10.5231 3.87555 13.1141C7.13688 17.2004 11.292 20.4489 14.6951 21.5704C15.6017 21.8711 16.1302 21.9657 16.8865 21.97C17.6384 21.97 18.0509 21.9098 18.6439 21.7165C19.8857 21.3083 20.917 20.4532 21.5228 19.3317C22.2189 18.0383 22.1373 16.9254 21.2736 16.0704C20.642 15.443 19.9845 15.0993 17.4666 14.0723C16.1173 13.5223 15.5244 13.3633 14.8541 13.3633C14.4158 13.3633 14.1365 13.4235 13.8099 13.5911C13.1353 13.9305 12.7142 14.4891 12.392 15.4688C12.3275 15.6708 12.2673 15.8426 12.2631 15.8469C12.2502 15.8684 11.524 15.2883 10.8279 14.6997C10.1404 14.1153 8.00055 11.9883 7.43766 11.3266C7.12399 10.9614 6.4193 10.0848 6.17868 9.77114C6.15289 9.73677 6.27321 9.67661 6.5611 9.58208C6.79313 9.50474 7.1025 9.38872 7.2486 9.31997C8.01344 8.95903 8.56774 8.16411 8.62789 7.33481C8.66227 6.84067 8.47321 5.92114 8.16383 5.07036C7.97047 4.52895 7.14547 2.63403 6.85758 2.06255C6.31618 0.992626 5.75329 0.386767 5.07438 0.146142C4.75211 0.0301265 4.13766 0.012939 3.75954 0.10747ZM4.86383 1.21606C5.315 1.47817 5.63297 1.95513 6.16579 3.17114C6.36344 3.61372 6.62125 4.1852 6.74586 4.44731C7.15407 5.30669 7.39469 6.01997 7.53219 6.76763C7.60524 7.15864 7.57516 7.45513 7.44196 7.72153C7.18414 8.21997 6.32477 8.66255 5.44391 8.74849C5.07438 8.78286 4.92399 8.85161 4.81227 9.03638C4.64039 9.31567 4.67477 9.40591 5.25055 10.1965C6.1443 11.4254 7.04664 12.4653 8.33571 13.75C9.62047 15.0391 10.5787 15.8684 11.8849 16.8438C12.4521 17.2649 12.5381 17.3165 12.6927 17.3165C13.0709 17.3165 13.2127 17.1446 13.2771 16.6161C13.3588 15.95 13.6552 15.1465 13.9388 14.8372C14.1795 14.5665 14.3943 14.4375 14.6865 14.3946C15.258 14.3 15.9111 14.4891 17.7931 15.2969C20.3927 16.4098 20.9255 16.8094 20.9255 17.6473C20.9213 18.8118 19.817 20.161 18.4763 20.6465C18.0252 20.8098 17.5912 20.8829 17.1099 20.8829C15.9713 20.8829 15.0131 20.625 13.5994 19.9418C8.79118 17.6086 3.20094 11.7391 1.55524 7.28325C1.18141 6.26919 1.09547 5.82661 1.09977 4.89849C1.09977 4.25395 1.11266 4.15513 1.21579 3.81138C1.55524 2.71138 2.24274 1.89067 3.23532 1.39224C3.70797 1.15161 4.02165 1.07427 4.39118 1.09145C4.60172 1.10005 4.72633 1.13442 4.86383 1.21606Z" fill="white"/>
</g>
<defs>
<clipPath id="clip0_667_25">
<rect width="22" height="22" fill="white"/>
</clipPath>
</defs>
</svg>
